<svg width="24" height="24" viewBox="0 0 24 24" fill="none" xmlns="http://www.w3.org/2000/svg">
<path d="M4.5 13.4899H15.879L12.4395 16.9246C12.2962 17.0628 12.182 17.2281 12.1033 17.4109C12.0247 17.5936 11.9834 17.7902 11.9816 17.9891C11.9799 18.188 12.0178 18.3852 12.0933 18.5693C12.1687 18.7534 12.2801 18.9206 12.4209 19.0613C12.5617 19.2019 12.7292 19.3131 12.9136 19.3885C13.0979 19.4638 13.2954 19.5017 13.4946 19.4999C13.6938 19.4982 13.8906 19.4569 14.0736 19.3784C14.2566 19.2999 14.4221 19.1858 14.5605 19.0427L20.5605 13.051C20.7002 12.9118 20.811 12.7466 20.8866 12.5646C20.9623 12.3826 21.0012 12.1875 21.0012 11.9905C21.0012 11.7934 20.9623 11.5983 20.8866 11.4164C20.811 11.2344 20.7002 11.0691 20.5605 10.9299L14.5605 4.93823C14.2788 4.65735 13.897 4.49972 13.4989 4.5C13.1009 4.50028 12.7193 4.65846 12.438 4.93973C12.1567 5.221 11.9989 5.60232 11.9992 5.99982C11.9994 6.39731 12.1578 6.77842 12.4395 7.05929L15.879 10.494H4.5C4.10218 10.494 3.72064 10.6519 3.43934 10.9328C3.15804 11.2137 3 11.5947 3 11.992C3 12.3892 3.15804 12.7702 3.43934 13.0512C3.72064 13.3321 4.10218 13.4899 4.5 13.4899Z" fill="#F7F7F8"/>
</svg>
