<svg width="16" height="16" viewBox="0 0 16 16" fill="none" xmlns="http://www.w3.org/2000/svg">
<path d="M11.2583 4.24987L6.20324 9.85143L4.36133 7.81037C4.20983 7.64823 4.00692 7.55851 3.7963 7.56053C3.58568 7.56256 3.38421 7.65618 3.23527 7.82121C3.08634 7.98625 3.00186 8.2095 3.00003 8.44289C2.9982 8.67628 3.07917 8.90113 3.22549 9.06901L5.63533 11.7394C5.78596 11.9063 5.99024 12 6.20324 12C6.41624 12 6.62053 11.9063 6.77116 11.7394L12.3941 5.50851C12.5404 5.34063 12.6214 5.11578 12.6196 4.88239C12.6177 4.649 12.5333 4.42575 12.3843 4.26071C12.2354 4.09568 12.0339 4.00206 11.8233 4.00003C11.6127 3.99801 11.4098 4.08773 11.2583 4.24987Z" fill="#F7F7F8"/>
</svg>
