<svg width="16" height="16" viewBox="0 0 16 16" fill="none" xmlns="http://www.w3.org/2000/svg">
<path d="M8.17448 10.2871C8.40234 10.2871 8.59375 10.2005 8.77148 10.0182L12.1439 6.56837C12.2806 6.43165 12.349 6.26759 12.349 6.06707C12.349 5.66147 12.0254 5.33334 11.6243 5.33334C11.4284 5.33334 11.2415 5.41537 11.0911 5.56577L8.17904 8.57358L5.26237 5.56577C5.11198 5.41537 4.92513 5.33334 4.72461 5.33334C4.32357 5.33334 4 5.66147 4 6.06707C4 6.26303 4.06836 6.42709 4.20508 6.56837L7.57747 10.0182C7.76432 10.2051 7.95117 10.2871 8.17448 10.2871Z" fill="#ABBDCC"/>
</svg>
