<svg width="16" height="16" viewBox="0 0 16 16" fill="none" xmlns="http://www.w3.org/2000/svg">
<g clip-path="url(#clip0_9_473)">
<g clip-path="url(#clip1_9_473)">
<path d="M8 16C12.4334 16 16 12.4334 16 8C16 3.56664 12.4334 0 8 0C3.56664 0 0 3.56664 0 8C0 12.4334 3.56664 16 8 16Z" fill="#2775CA"/>
<path d="M10.2 9.26665C10.2 8.10001 9.50001 7.70001 8.10001 7.53337C7.10001 7.40001 6.90001 7.13337 6.90001 6.66665C6.90001 6.19993 7.23337 5.90001 7.90001 5.90001C8.50001 5.90001 8.83337 6.10001 9.00001 6.60001C9.03337 6.70001 9.13337 6.76665 9.23337 6.76665H9.76665C9.90001 6.76665 10 6.66665 10 6.53337V6.50001C9.86665 5.76665 9.26665 5.20001 8.50001 5.13337V4.33337C8.50001 4.20001 8.40001 4.10001 8.23337 4.06665H7.73337C7.60001 4.06665 7.50001 4.16665 7.46665 4.33337V5.10001C6.46665 5.23337 5.83337 5.90001 5.83337 6.73337C5.83337 7.83337 6.50001 8.26665 7.90001 8.43337C8.83337 8.60001 9.13337 8.80001 9.13337 9.33337C9.13337 9.86673 8.66665 10.2334 8.03337 10.2334C7.16665 10.2334 6.86665 9.86665 6.76665 9.36665C6.73337 9.23337 6.63337 9.16665 6.53337 9.16665H5.96665C5.83337 9.16665 5.73337 9.26665 5.73337 9.40001V9.43337C5.86665 10.2667 6.40001 10.8667 7.50001 11.0334V11.8334C7.50001 11.9667 7.60001 12.0667 7.76665 12.1H8.26665C8.40001 12.1 8.50001 12 8.53337 11.8334V11.0334C9.53337 10.8667 10.2 10.1666 10.2 9.26665Z" fill="white"/>
<path d="M6.29999 12.7667C3.69999 11.8334 2.36663 8.93337 3.33335 6.36665C3.83335 4.96665 4.93335 3.90001 6.29999 3.40001C6.43335 3.33337 6.49999 3.23337 6.49999 3.06665V2.60001C6.49999 2.46665 6.43335 2.36665 6.29999 2.33337C6.26663 2.33337 6.19999 2.33337 6.16663 2.36665C2.99999 3.36665 1.26663 6.73337 2.26663 9.90001C2.86663 11.7667 4.29999 13.2 6.16663 13.8C6.29999 13.8667 6.43335 13.8 6.46663 13.6667C6.49999 13.6334 6.49999 13.6 6.49999 13.5334V13.0667C6.49999 12.9667 6.39999 12.8334 6.29999 12.7667ZM9.83335 2.36665C9.69999 2.30001 9.56663 2.36665 9.53335 2.50001C9.49999 2.53337 9.49999 2.56665 9.49999 2.63337V3.10001C9.49999 3.23337 9.59999 3.36665 9.69999 3.43337C12.3 4.36665 13.6334 7.26665 12.6666 9.83337C12.1666 11.2334 11.0666 12.3 9.69999 12.8C9.56663 12.8667 9.49999 12.9667 9.49999 13.1334V13.6C9.49999 13.7334 9.56663 13.8334 9.69999 13.8667C9.73335 13.8667 9.79999 13.8667 9.83335 13.8334C13 12.8334 14.7334 9.46665 13.7334 6.30001C13.1334 4.40001 11.6666 2.96665 9.83335 2.36665Z" fill="white"/>
</g>
</g>
<defs>
<clipPath id="clip0_9_473">
<rect width="16" height="16" rx="8" fill="white"/>
</clipPath>
<clipPath id="clip1_9_473">
<rect width="16" height="16" fill="white"/>
</clipPath>
</defs>
</svg>
