<svg width="16" height="16" viewBox="0 0 16 16" fill="none" xmlns="http://www.w3.org/2000/svg">
<g clip-path="url(#clip0_9_928)">
<path d="M8 16C12.4183 16 16 12.4183 16 8C16 3.58172 12.4183 0 8 0C3.58172 0 0 3.58172 0 8C0 12.4183 3.58172 16 8 16Z" fill="#26A17B"/>
<path fill-rule="evenodd" clip-rule="evenodd" d="M8.99999 8.69999C8.33404 8.74361 7.66595 8.74361 6.99999 8.69999C5.04999 8.59999 3.59999 8.24999 3.59999 7.84999C3.59999 7.44999 5.09999 7.09999 6.99999 7.04999V8.34999C7.6659 8.39509 8.33409 8.39509 8.99999 8.34999V7.04999C10.9 7.09999 12.35 7.44999 12.35 7.84999C12.35 8.24999 10.9 8.59999 8.94999 8.69999M8.94999 6.89999V5.69999H11.65V3.89999H4.29999V5.69999H6.99999V6.89999C4.79999 6.99999 3.14999 7.39999 3.14999 7.94999C3.14999 8.44999 4.79999 8.94999 6.99999 8.99999V12.8H8.99999V8.99999C11.15 8.89999 12.8 8.49999 12.8 7.99999C12.8 7.44999 11.15 6.99999 8.94999 6.89999Z" fill="white"/>
</g>
<defs>
<clipPath id="clip0_9_928">
<rect width="16" height="16" rx="8" fill="white"/>
</clipPath>
</defs>
</svg>
