<svg width="12" height="12" viewBox="0 0 12 12" fill="none" xmlns="http://www.w3.org/2000/svg">
<g clip-path="url(#clip0_12_1169)">
<g clip-path="url(#clip1_12_1169)">
<path fill-rule="evenodd" clip-rule="evenodd" d="M4.56598 0.588841C4.01752 0.608233 3.62781 0.658477 2.93548 0.799033C2.55613 0.876049 2.40333 0.914089 2.28273 0.961573C1.63095 1.21819 1.10584 1.86571 0.869718 2.70397C0.812814 2.906 0.776658 3.1147 0.726954 3.52798C0.603762 4.55245 0.577518 5.12902 0.583566 6.67798C0.587838 7.77174 0.617802 8.15456 0.762978 8.96998C0.83739 9.38798 0.880987 9.53891 0.996486 9.77849C1.08817 9.96865 1.13342 10.0436 1.25455 10.206C1.58115 10.6437 2.05719 10.97 2.57398 11.1103C2.73909 11.1551 2.89203 11.1814 3.38398 11.2492C4.30891 11.3767 4.80949 11.4133 5.63398 11.4136C6.49346 11.4139 7.0136 11.3735 8.05798 11.2253C8.60443 11.1477 8.77191 11.1074 9.04798 10.9867C9.60465 10.7435 10.1015 10.2325 10.3319 9.66612C10.4176 9.45559 10.4713 9.23077 10.5495 8.75623L10.5649 8.6625L10.6815 8.60263C11.0345 8.42129 11.2791 8.11711 11.3762 7.73881C11.4124 7.59761 11.4238 7.40992 11.4238 6.95398C11.4238 6.36001 11.4088 6.22388 11.3191 6.00005C11.1972 5.69617 10.9532 5.43558 10.659 5.2949C10.6111 5.27203 10.572 5.25085 10.572 5.25085C10.572 5.22088 10.4568 4.60531 10.436 4.52398C10.2797 3.91374 9.86033 3.35573 9.3109 3.02683C9.24681 2.98847 9.21759 2.96412 9.22105 2.95198C9.22387 2.94208 9.24055 2.89958 9.25813 2.85755C9.32047 2.70848 9.34983 2.56414 9.35681 2.37254C9.3643 2.16685 9.34904 2.02914 9.29974 1.85742C9.15532 1.35443 8.76904 0.959737 8.28631 0.821941C7.89801 0.711097 6.81443 0.615673 5.69998 0.594169C4.99899 0.580645 4.82129 0.579805 4.56598 0.588841ZM4.58998 1.71683C4.33173 1.72631 4.05116 1.75064 3.82798 1.78294C3.50545 1.82959 2.79722 1.97389 2.6854 2.01572C2.37238 2.13284 2.07381 2.55034 1.94458 3.05164C1.89807 3.23207 1.83479 3.70436 1.77627 4.30798C1.72667 4.81951 1.70696 5.54293 1.71157 6.68184C1.71572 7.7078 1.7387 8.00548 1.87202 8.75998C1.92551 9.06272 1.94909 9.15436 2.00571 9.27952C2.1452 9.58792 2.41574 9.84691 2.72969 9.97262C2.87657 10.0314 2.97845 10.0523 3.42466 10.1152C4.38751 10.251 4.83604 10.2855 5.63998 10.2855C6.48323 10.2856 7.09269 10.2339 8.14198 10.073C8.52639 10.014 8.7427 9.9138 8.98001 9.68474C9.19779 9.47452 9.31051 9.25968 9.37075 8.93998C9.38505 8.86408 9.39938 8.78982 9.40259 8.77498L9.40844 8.74798H9.09662C8.64747 8.74798 8.47294 8.71916 8.18381 8.59729C7.97138 8.50775 7.71458 8.32258 7.56327 8.14984C7.18287 7.71554 7.03087 7.14426 7.14609 6.58198C7.25075 6.07127 7.60607 5.60593 8.07553 5.36479C8.38917 5.20369 8.61363 5.15998 9.12725 5.15998C9.34744 5.15998 9.40798 5.15666 9.40798 5.1446C9.40798 5.10554 9.34427 4.79765 9.32177 4.72798C9.2908 4.63204 9.21579 4.4801 9.15589 4.39198C9.03794 4.21847 8.8309 4.04033 8.63504 3.94382C8.45211 3.85369 8.3018 3.81781 7.87798 3.76306C7.33714 3.69319 6.9764 3.67217 6.31675 3.67205C5.71205 3.67195 5.25028 3.6946 4.45798 3.76318C3.97306 3.80515 3.84537 3.81048 3.76697 3.79202C3.59389 3.75126 3.43751 3.6153 3.37001 3.44686C3.34683 3.38903 3.34237 3.35573 3.3422 3.23934C3.34198 3.10355 3.34289 3.09886 3.3862 3.01134C3.41051 2.96219 3.45083 2.89816 3.47579 2.86903C3.53175 2.80376 3.64459 2.72948 3.72328 2.70611C3.7981 2.68388 4.52183 2.61997 5.23198 2.57287C5.61487 2.54747 6.64457 2.53709 7.01398 2.5549C7.31943 2.56962 7.60046 2.59244 7.85017 2.62279C7.99807 2.64077 8.00369 2.64061 8.04952 2.61724C8.11232 2.5852 8.2 2.48592 8.21771 2.42681C8.23741 2.36108 8.23558 2.23644 8.21385 2.16328C8.17042 2.01703 8.06863 1.92528 7.91282 1.89196C7.6322 1.83193 7.11731 1.78324 6.37198 1.74625C6.05168 1.73035 5.83571 1.72457 5.08198 1.71168C4.94998 1.70941 4.72858 1.71174 4.58998 1.71683ZM8.75129 6.30566C8.64185 6.3301 8.51635 6.40094 8.43065 6.48665C8.08526 6.83204 8.21305 7.40372 8.6758 7.58335L8.75398 7.6137L9.30231 7.6175C9.7712 7.62076 9.85976 7.6186 9.91349 7.60264C9.95092 7.59152 10.022 7.58398 10.0893 7.58398C10.1998 7.58398 10.2031 7.58314 10.2364 7.54752C10.2924 7.48757 10.2977 7.42958 10.2936 6.91594C10.29 6.45473 10.2897 6.44948 10.2623 6.40177C10.2471 6.37525 10.2151 6.34015 10.1912 6.32377L10.1478 6.29398L9.48687 6.29148C8.95934 6.28949 8.81091 6.29236 8.75129 6.30566Z" fill="#91A3B1"/>
</g>
</g>
<defs>
<clipPath id="clip0_12_1169">
<rect width="12" height="12" fill="white"/>
</clipPath>
<clipPath id="clip1_12_1169">
<rect width="12" height="12" fill="white"/>
</clipPath>
</defs>
</svg>
