<svg width="24" height="24" viewBox="0 0 24 24" fill="none" xmlns="http://www.w3.org/2000/svg">
<path d="M19.5321 4.46789C19.2324 4.1683 18.826 4 18.4023 4C17.9785 4 17.5721 4.1683 17.2724 4.46789L12.01 9.73034L6.74754 4.46789C6.44614 4.17679 6.04247 4.01572 5.62346 4.01936C5.20445 4.023 4.80363 4.19106 4.50734 4.48736C4.21104 4.78366 4.04298 5.18447 4.03934 5.60348C4.03569 6.02249 4.19677 6.42617 4.48787 6.72757L9.75032 11.99L4.48787 17.2525C4.33524 17.3999 4.2135 17.5762 4.12974 17.7712C4.04599 17.9662 4.0019 18.1759 4.00006 18.388C3.99822 18.6002 4.03865 18.8107 4.119 19.0071C4.19936 19.2035 4.31802 19.3819 4.46806 19.5319C4.61811 19.682 4.79654 19.8006 4.99294 19.881C5.18933 19.9614 5.39977 20.0018 5.61196 19.9999C5.82415 19.9981 6.03385 19.954 6.22882 19.8703C6.42379 19.7865 6.60013 19.6648 6.74754 19.5121L12.01 14.2497L17.2724 19.5121C17.5738 19.8032 17.9775 19.9643 18.3965 19.9607C18.8155 19.957 19.2163 19.789 19.5126 19.4927C19.8089 19.1964 19.977 18.7956 19.9806 18.3765C19.9843 17.9575 19.8232 17.5539 19.5321 17.2525L14.2697 11.99L19.5321 6.72757C19.8317 6.42788 20 6.02148 20 5.59773C20 5.17398 19.8317 4.76758 19.5321 4.46789Z" fill="#91A3B1"/>
</svg>
